<?xml version="1.0" encoding="utf-8"?>
<!-- Generator: Adobe Illustrator 16.0.0, SVG Export Plug-In . SVG Version: 6.00 Build 0)  -->
<!DOCTYPE svg PUBLIC "-//W3C//DTD SVG 1.1//EN" "http://www.w3.org/Graphics/SVG/1.1/DTD/svg11.dtd">
<svg version="1.1" id="Layer_1" xmlns="http://www.w3.org/2000/svg" xmlns:xlink="http://www.w3.org/1999/xlink" x="0px" y="0px"
	 width="85px" height="43.75px" viewBox="0 0 85 43.75" enable-background="new 0 0 85 43.75" xml:space="preserve">
<g>
	<path fill="#8C0229" d="M81,35c0,2.762-2.238,5-5,5H9c-2.761,0-5-2.238-5-5V10c0-2.761,2.239-5,5-5h67c2.762,0,5,2.239,5,5V35z"/>
	<path fill="#FFFFFF" d="M76.5,41h-67C5.916,41,3,38.084,3,34.5v-25C3,5.916,5.916,3,9.5,3h67C80.084,3,83,5.916,83,9.5v25
		C83,38.084,80.084,41,76.5,41z M9.5,6C7.57,6,6,7.57,6,9.5v25C6,36.43,7.57,38,9.5,38h67c1.93,0,3.5-1.57,3.5-3.5v-25
		C80,7.57,78.43,6,76.5,6H9.5z"/>
</g>
<g>
	<path fill="#FFFFFF" d="M19.255,16.104c0.896-0.144,2.064-0.224,3.297-0.224c2.049,0,3.377,0.368,4.418,1.152
		c1.121,0.832,1.825,2.161,1.825,4.065c0,2.065-0.752,3.49-1.792,4.37c-1.137,0.944-2.865,1.393-4.978,1.393
		c-1.265,0-2.161-0.08-2.769-0.16V16.104z M21.704,24.908c0.208,0.048,0.544,0.048,0.848,0.048c2.209,0.017,3.65-1.2,3.65-3.777
		c0.016-2.241-1.297-3.425-3.394-3.425c-0.544,0-0.896,0.048-1.104,0.096V24.908z"/>
	<path fill="#FFFFFF" d="M37.402,22.748c0,2.866-2.033,4.178-4.13,4.178c-2.289,0-4.049-1.505-4.049-4.034s1.665-4.146,4.178-4.146
		C35.801,18.746,37.402,20.395,37.402,22.748z M31.735,22.828c0,1.344,0.561,2.353,1.601,2.353c0.944,0,1.552-0.944,1.552-2.353
		c0-1.168-0.448-2.353-1.552-2.353C32.168,20.475,31.735,21.675,31.735,22.828z"/>
	<path fill="#FFFFFF" d="M38.263,21.419c0-0.977-0.032-1.809-0.064-2.497h2.113l0.112,1.072h0.048
		c0.32-0.496,1.121-1.249,2.417-1.249c1.601,0,2.801,1.057,2.801,3.361v4.642h-2.433v-4.338c0-1.008-0.353-1.697-1.233-1.697
		c-0.672,0-1.072,0.464-1.232,0.913c-0.064,0.144-0.096,0.384-0.096,0.608v4.514h-2.433V21.419z"/>
	<path fill="#FFFFFF" d="M51.448,26.749l-0.144-0.784h-0.048c-0.513,0.624-1.312,0.961-2.241,0.961
		c-1.585,0-2.529-1.153-2.529-2.401c0-2.033,1.825-3.009,4.594-2.994v-0.112c0-0.416-0.224-1.008-1.424-1.008
		c-0.801,0-1.649,0.272-2.161,0.592l-0.448-1.569c0.544-0.304,1.616-0.688,3.041-0.688c2.609,0,3.441,1.537,3.441,3.377v2.722
		c0,0.752,0.032,1.473,0.112,1.904H51.448z M51.16,23.052c-1.28-0.016-2.272,0.288-2.272,1.232c0,0.624,0.416,0.929,0.96,0.929
		c0.608,0,1.104-0.4,1.265-0.896c0.032-0.128,0.048-0.272,0.048-0.416V23.052z"/>
	<path fill="#FFFFFF" d="M57.399,16.681v2.241h1.745v1.792h-1.745v2.833c0,0.944,0.225,1.377,0.961,1.377
		c0.304,0,0.544-0.032,0.72-0.064l0.017,1.841c-0.32,0.128-0.896,0.208-1.585,0.208c-0.784,0-1.44-0.271-1.825-0.672
		c-0.448-0.465-0.672-1.217-0.672-2.321v-3.202h-1.04v-1.792h1.04v-1.697L57.399,16.681z"/>
	<path fill="#FFFFFF" d="M61.704,23.612c0.079,1.008,1.072,1.488,2.208,1.488c0.833,0,1.505-0.112,2.161-0.32l0.32,1.648
		c-0.801,0.32-1.776,0.48-2.833,0.48c-2.657,0-4.178-1.536-4.178-3.986c0-1.985,1.232-4.178,3.953-4.178
		c2.529,0,3.49,1.969,3.49,3.906c0,0.416-0.049,0.784-0.08,0.961H61.704z M64.568,21.947c0-0.592-0.256-1.585-1.376-1.585
		c-1.024,0-1.44,0.929-1.505,1.585H64.568z"/>
</g>
</svg>
