<?xml version="1.0" encoding="utf-8"?>
<!-- Generator: Adobe Illustrator 16.0.4, SVG Export Plug-In . SVG Version: 6.00 Build 0)  -->
<!DOCTYPE svg PUBLIC "-//W3C//DTD SVG 1.1//EN" "http://www.w3.org/Graphics/SVG/1.1/DTD/svg11.dtd">
<svg version="1.1" xmlns="http://www.w3.org/2000/svg" xmlns:xlink="http://www.w3.org/1999/xlink" x="0px" y="0px" width="380px"
	 height="137px" viewBox="-10.5 0 380 137" enable-background="new -10.5 0 380 137" xml:space="preserve">
<g id="Layer_2">
	<rect x="-10.5" fill="#FFFFFF" width="380" height="137"/>
</g>
<g id="Layer_1">
	<g>
		
			<linearGradient id="SVGID_1_" gradientUnits="userSpaceOnUse" x1="-433.46" y1="510.1992" x2="-425.6849" y2="472.2824" gradientTransform="matrix(1 0 0 1 488 -474)">
			<stop  offset="0" style="stop-color:#FFFFFF"/>
			<stop  offset="0" style="stop-color:#F3E2E8"/>
			<stop  offset="0" style="stop-color:#E2B9C8"/>
			<stop  offset="0" style="stop-color:#D293AA"/>
			<stop  offset="0" style="stop-color:#C47390"/>
			<stop  offset="0" style="stop-color:#B9577B"/>
			<stop  offset="0" style="stop-color:#B04169"/>
			<stop  offset="0" style="stop-color:#A9305C"/>
			<stop  offset="0" style="stop-color:#A42553"/>
			<stop  offset="0" style="stop-color:#A11E4D"/>
			<stop  offset="0" style="stop-color:#A01C4C"/>
			<stop  offset="0.2734" style="stop-color:#9E1C4B"/>
			<stop  offset="0.4313" style="stop-color:#951A47"/>
			<stop  offset="0.5598" style="stop-color:#871840"/>
			<stop  offset="0.6726" style="stop-color:#731437"/>
			<stop  offset="0.7751" style="stop-color:#5A102B"/>
			<stop  offset="0.8701" style="stop-color:#3A0A1B"/>
			<stop  offset="0.9576" style="stop-color:#15040A"/>
			<stop  offset="1" style="stop-color:#000000"/>
		</linearGradient>
		<path fill="url(#SVGID_1_)" d="M50.5,10.5c8.95-11.933,29.5-3,15,15C52.5,44,38.5,26.5,50.5,10.5z"/>
		
			<radialGradient id="SVGID_2_" cx="-431.6616" cy="546.0312" r="47.9846" gradientTransform="matrix(1 0 0 1 488 -474)" gradientUnits="userSpaceOnUse">
			<stop  offset="0" style="stop-color:#F1C3CD"/>
			<stop  offset="0.2316" style="stop-color:#C37080"/>
			<stop  offset="0.4175" style="stop-color:#A93858"/>
			<stop  offset="0.5041" style="stop-color:#A01C4C"/>
			<stop  offset="0.6138" style="stop-color:#991D42"/>
			<stop  offset="0.8371" style="stop-color:#861E29"/>
			<stop  offset="1" style="stop-color:#771D15"/>
		</radialGradient>
		<path fill="url(#SVGID_2_)" d="M55.5,41.5c20-19.5,40-19,35,0S59,69.667,36,63c-1.667,2.667,7,4.333,8,6c0.97,1.617-18,0.667-18,2
			c0,2.549,12,1,15,2.667C42.061,74.256,29,74,27,75s-3,2,1,2s11-0.666,12,0.334c1.994,1.994-12.333,1.333-13,2.666
			c-1.36,2.721,11.333,1,12.5,1.5c2.915,1.25-8.5,2-8.5,2s-1,1.834,3,1.834s16.667,2,28-2C70.891,80.195,77.334,76.57,83.333,68
			c2.333-3.333,10.667-10.333,2,3.334C88,72,92.645,60.331,97.5,58c4.167-2-5,10-4,11.5S102.333,56,103,58c1.132,3.396-6.5,12-6,13
			s8.333-12,8.5-8c0.14,3.368-7.822,11.381-6.25,11c2.75-0.666,4.083-5,7.75-7.667C109.667,69,78.5,104.5,56,117
			c0,0-41-22.5-49-42.5s17.5-51,49-32.5"/>
	</g>
	<g>
		<path fill="#324D67" d="M204.055,23.633c-0.47-0.4-1.185-0.6-2.145-0.6c-0.801,0-1.48,0.215-2.04,0.645
			c-0.56,0.431-1.011,0.975-1.351,1.635s-0.584,1.375-0.734,2.145s-0.225,1.485-0.225,2.145c0,0.46,0.049,0.895,0.147,1.305
			c0.103,0.41,0.271,0.765,0.512,1.065c0.238,0.3,0.544,0.54,0.913,0.72c0.37,0.18,0.825,0.27,1.365,0.27
			c0.479,0,0.902-0.08,1.273-0.24c0.369-0.16,0.699-0.37,0.99-0.63c0.289-0.26,0.529-0.564,0.719-0.915
			c0.19-0.35,0.348-0.715,0.468-1.095h4.26c-0.642,1.94-1.625,3.435-2.955,4.485c-1.33,1.05-3.015,1.575-5.055,1.575
			c-2.183,0-3.876-0.535-5.085-1.605c-1.213-1.07-1.815-2.745-1.815-5.025c0-1.32,0.195-2.565,0.585-3.735
			c0.393-1.17,0.962-2.2,1.712-3.09s1.663-1.59,2.743-2.1c1.08-0.51,2.32-0.765,3.723-0.765c0.938,0,1.83,0.11,2.67,0.33
			c0.84,0.22,1.574,0.56,2.205,1.02c0.629,0.46,1.129,1.061,1.5,1.8c0.369,0.74,0.562,1.62,0.584,2.64h-4.262
			C204.76,24.693,204.525,24.033,204.055,23.633z"/>
		<path fill="#324D67" d="M211.195,25.748c0.41-1.17,1-2.195,1.77-3.075c0.771-0.88,1.705-1.575,2.807-2.085
			c1.101-0.51,2.34-0.765,3.721-0.765c1.06,0,2.033,0.135,2.925,0.405s1.654,0.675,2.295,1.215c0.642,0.54,1.136,1.22,1.483,2.04
			c0.352,0.82,0.525,1.79,0.525,2.91c0,1.36-0.205,2.635-0.615,3.825c-0.41,1.19-1.004,2.225-1.785,3.105
			c-0.778,0.88-1.725,1.57-2.834,2.07s-2.375,0.75-3.795,0.75c-2.159,0-3.885-0.555-5.176-1.665s-1.936-2.775-1.936-4.995
			C210.58,28.163,210.785,26.918,211.195,25.748z M215.035,30.803c0.13,0.42,0.324,0.791,0.585,1.11
			c0.26,0.319,0.58,0.575,0.96,0.765c0.38,0.19,0.82,0.285,1.32,0.285c0.8,0,1.483-0.215,2.055-0.645c0.57-0.43,1.04-0.97,1.41-1.62
			c0.369-0.649,0.646-1.354,0.824-2.115c0.181-0.76,0.271-1.47,0.271-2.13c0-1.04-0.235-1.87-0.705-2.49s-1.274-0.93-2.415-0.93
			c-0.779,0-1.453,0.215-2.023,0.645c-0.569,0.431-1.034,0.965-1.396,1.605c-0.358,0.641-0.63,1.335-0.812,2.085
			c-0.18,0.75-0.271,1.455-0.271,2.115C214.84,29.943,214.904,30.383,215.035,30.803z"/>
		<path fill="#324D67" d="M234.43,20.243l-0.479,2.19h0.06c0.64-0.9,1.421-1.56,2.341-1.98s1.949-0.63,3.09-0.63
			c0.959,0,1.779,0.21,2.459,0.63c0.682,0.42,1.11,1.11,1.291,2.07c0.261-0.4,0.591-0.765,0.99-1.095
			c0.398-0.33,0.829-0.615,1.289-0.854c0.461-0.24,0.945-0.424,1.455-0.555c0.51-0.13,1.016-0.195,1.516-0.195
			c0.602,0,1.187,0.081,1.754,0.24c0.57,0.16,1.076,0.4,1.518,0.72c0.438,0.32,0.79,0.73,1.051,1.23c0.26,0.5,0.391,1.08,0.391,1.74
			c0,0.48-0.051,0.965-0.149,1.455c-0.101,0.49-0.2,0.965-0.3,1.425l-1.921,9.12h-4.261l2.041-9.81c0.08-0.4,0.119-0.77,0.119-1.11
			c0-0.46-0.176-0.85-0.524-1.17c-0.351-0.32-0.796-0.48-1.335-0.48c-0.561,0-1.064,0.135-1.516,0.405
			c-0.453,0.27-0.841,0.61-1.17,1.02c-0.33,0.41-0.604,0.865-0.824,1.365c-0.222,0.5-0.381,0.99-0.479,1.47l-1.74,8.31h-4.29
			l2.04-9.81c0.079-0.4,0.12-0.77,0.12-1.11c0-0.46-0.176-0.85-0.525-1.17c-0.349-0.32-0.795-0.48-1.334-0.48
			c-0.561,0-1.063,0.135-1.516,0.405s-0.84,0.61-1.17,1.02c-0.33,0.41-0.605,0.865-0.825,1.365c-0.221,0.5-0.38,0.99-0.479,1.47
			l-1.739,8.31h-4.229l3.209-15.51L234.43,20.243L234.43,20.243z"/>
		<path fill="#324D67" d="M261.04,20.243l-0.479,2.19h0.062c0.642-0.9,1.42-1.56,2.34-1.98s1.95-0.63,3.09-0.63
			c0.96,0,1.78,0.21,2.46,0.63c0.682,0.42,1.11,1.11,1.29,2.07c0.261-0.4,0.591-0.765,0.99-1.095c0.397-0.33,0.83-0.615,1.29-0.854
			c0.46-0.24,0.943-0.424,1.455-0.555c0.51-0.13,1.015-0.195,1.515-0.195c0.603,0,1.187,0.081,1.757,0.24
			c0.568,0.16,1.073,0.4,1.516,0.72c0.438,0.32,0.789,0.73,1.05,1.23c0.26,0.5,0.39,1.08,0.39,1.74c0,0.48-0.05,0.965-0.147,1.455
			c-0.103,0.49-0.2,0.965-0.302,1.425l-1.92,9.12h-4.261l2.04-9.81c0.08-0.4,0.12-0.77,0.12-1.11c0-0.46-0.175-0.85-0.524-1.17
			c-0.351-0.32-0.795-0.48-1.336-0.48c-0.56,0-1.062,0.135-1.515,0.405s-0.84,0.61-1.17,1.02c-0.33,0.41-0.604,0.865-0.825,1.365
			c-0.22,0.5-0.38,0.99-0.479,1.47l-1.74,8.31h-4.29l2.04-9.81c0.079-0.4,0.12-0.77,0.12-1.11c0-0.46-0.177-0.85-0.525-1.17
			c-0.349-0.32-0.795-0.48-1.335-0.48c-0.561,0-1.064,0.135-1.515,0.405c-0.451,0.27-0.841,0.61-1.171,1.02
			c-0.329,0.41-0.604,0.865-0.824,1.365c-0.221,0.5-0.381,0.99-0.48,1.47l-1.738,8.31h-4.229l3.21-15.51L261.04,20.243
			L261.04,20.243z"/>
		<path fill="#324D67" d="M290.949,35.753l0.48-2.16h-0.062c-1.381,1.7-3.19,2.55-5.432,2.55c-3.021,0-4.528-1.38-4.528-4.14
			c0-0.16,0.016-0.365,0.045-0.615c0.028-0.25,0.069-0.504,0.12-0.765c0.05-0.26,0.1-0.505,0.148-0.735
			c0.051-0.229,0.096-0.415,0.135-0.555l1.922-9.09h4.26l-1.891,9.09c-0.041,0.12-0.074,0.265-0.104,0.435s-0.062,0.345-0.091,0.525
			c-0.029,0.18-0.05,0.355-0.062,0.525c-0.011,0.17-0.015,0.305-0.015,0.405c0,0.46,0.214,0.84,0.646,1.14
			c0.431,0.3,0.896,0.45,1.396,0.45c0.641,0,1.204-0.125,1.693-0.375c0.49-0.25,0.91-0.575,1.261-0.975
			c0.353-0.4,0.641-0.86,0.87-1.38c0.229-0.52,0.404-1.05,0.523-1.59l1.74-8.25h4.26l-3.24,15.51H290.949z"/>
		<path fill="#324D67" d="M305.38,20.243l-0.479,2.16h0.062c1.38-1.72,3.188-2.58,5.431-2.58c3.021,0,4.529,1.391,4.529,4.17
			c0,0.16-0.021,0.365-0.061,0.615c-0.04,0.25-0.086,0.505-0.137,0.765c-0.05,0.26-0.1,0.505-0.147,0.735
			c-0.052,0.23-0.086,0.416-0.104,0.555l-1.921,9.09h-4.26l1.892-9.09c0.038-0.24,0.094-0.56,0.163-0.96
			c0.07-0.4,0.105-0.71,0.105-0.93c0-0.46-0.218-0.84-0.646-1.14c-0.431-0.3-0.896-0.45-1.396-0.45
			c-0.642,0-1.205,0.125-1.695,0.375c-0.489,0.25-0.909,0.575-1.26,0.975c-0.353,0.4-0.642,0.86-0.87,1.38s-0.404,1.05-0.523,1.59
			l-1.739,8.25h-4.23l3.21-15.51H305.38z"/>
		<path fill="#324D67" d="M323.38,20.243l-3.301,15.51h-4.261l3.271-15.51H323.38z M319.568,17.843l0.781-3.51h4.289l-0.779,3.51
			H319.568z"/>
		<path fill="#324D67" d="M335.92,20.243l-0.66,2.85h-3.029l-1.59,7.71c-0.041,0.161-0.069,0.305-0.091,0.435
			c-0.021,0.13-0.03,0.225-0.03,0.285c0,0.28,0.045,0.495,0.137,0.645c0.09,0.15,0.203,0.265,0.346,0.345
			c0.141,0.081,0.294,0.125,0.465,0.135c0.169,0.01,0.334,0.015,0.495,0.015c0.521,0,1.029-0.03,1.529-0.09l-0.722,3.27
			c-0.438,0.04-0.879,0.075-1.318,0.105c-0.439,0.03-0.891,0.045-1.352,0.045c-0.5,0-0.994-0.045-1.483-0.135
			c-0.49-0.09-0.931-0.25-1.319-0.48c-0.391-0.229-0.7-0.545-0.931-0.945c-0.231-0.4-0.335-0.92-0.314-1.56
			c0-0.2,0.021-0.425,0.062-0.675c0.039-0.25,0.09-0.515,0.148-0.795l1.74-8.31h-2.79l0.659-2.85h2.729l0.961-4.71h4.26l-0.961,4.71
			H335.92z"/>
		<path fill="#324D67" d="M342.729,39.548c-0.379,0.43-0.799,0.765-1.26,1.005c-0.46,0.24-0.984,0.405-1.574,0.495
			c-0.591,0.09-1.285,0.135-2.086,0.135c-0.357,0-0.729-0.021-1.107-0.06c-0.381-0.041-0.762-0.07-1.143-0.09l0.723-3.54
			c0.279,0,0.563,0.03,0.854,0.09s0.575,0.09,0.855,0.09c0.499,0,0.898-0.075,1.197-0.225c0.303-0.15,0.545-0.33,0.735-0.54
			s0.351-0.435,0.479-0.675c0.131-0.24,0.266-0.45,0.404-0.63l-2.761-15.36h4.38l1.352,11.1h0.061l5.37-11.1h4.5l-9.87,17.67
			C343.479,38.573,343.107,39.118,342.729,39.548z"/>
	</g>
	<path fill="#324D67" stroke="#324D67" stroke-width="2" stroke-miterlimit="10" d="M192,18l-17.77,76.971h-16.065L168,65h-19
		l-23.096,29.971L101,95l70-77H192z M169,60l7-28l2-6l-25,34H169z"/>
	<path fill="#324D67" stroke="#324D67" stroke-width="2" stroke-miterlimit="10" d="M209.689,63.458
		c-1.125-1.04-2.834-1.56-5.131-1.56c-1.914,0-3.541,0.559-4.883,1.677c-1.34,1.119-2.416,2.535-3.229,4.251
		c-0.814,1.716-1.398,3.576-1.76,5.578c-0.358,2.002-0.537,3.859-0.537,5.576c0,1.195,0.117,2.328,0.357,3.393
		c0.239,1.066,0.646,1.99,1.221,2.77c0.574,0.78,1.305,1.404,2.188,1.873c0.886,0.467,1.976,0.701,3.267,0.701
		c1.147,0,2.164-0.207,3.051-0.624c0.884-0.415,1.675-0.962,2.367-1.638s1.269-1.469,1.724-2.379c0.452-0.91,0.823-1.859,1.11-2.848
		h10.188c-1.53,5.045-3.888,8.932-7.067,11.66c-3.182,2.729-7.211,4.096-12.091,4.096c-5.216,0-9.271-1.393-12.163-4.174
		c-2.896-2.781-4.343-7.138-4.343-13.064c0-3.432,0.468-6.668,1.399-9.711c0.933-3.042,2.296-5.719,4.091-8.034
		c1.794-2.313,3.981-4.134,6.565-5.46c2.582-1.326,5.549-1.989,8.897-1.989c2.248,0,4.377,0.286,6.387,0.858
		c2.009,0.573,3.767,1.457,5.272,2.652c1.509,1.197,2.703,2.757,3.589,4.68c0.885,1.924,1.353,4.212,1.399,6.864h-10.19
		C211.375,66.215,210.812,64.5,209.689,63.458z"/>
	<path fill="#324D67" stroke="#324D67" stroke-width="2" stroke-miterlimit="10" d="M248.979,54.645l-1.578,7.41h-7.248
		l-3.805,20.046c-0.096,0.416-0.168,0.793-0.215,1.131c-0.048,0.338-0.072,0.584-0.072,0.74c0,0.729,0.108,1.286,0.323,1.678
		c0.216,0.39,0.49,0.688,0.825,0.896c0.334,0.208,0.705,0.325,1.111,0.353c0.406,0.024,0.802,0.039,1.186,0.039
		c1.243,0,2.463-0.078,3.659-0.233l-1.722,8.502c-1.055,0.104-2.106,0.194-3.158,0.272c-1.053,0.078-2.129,0.115-3.229,0.115
		c-1.197,0-2.383-0.115-3.555-0.351c-1.173-0.234-2.227-0.65-3.157-1.248c-0.931-0.599-1.675-1.416-2.225-2.457
		c-0.552-1.04-0.804-2.394-0.753-4.058c0-0.521,0.047-1.104,0.144-1.756c0.097-0.647,0.216-1.338,0.358-2.065l4.162-21.605h-6.676
		l1.58-7.41h6.529l2.297-12.246h10.188l-2.296,12.246L248.979,54.645L248.979,54.645z"/>
	<path fill="#324D67" stroke="#324D67" stroke-width="2" stroke-miterlimit="10" d="M265.555,54.645l-7.895,40.326h-10.189
		l7.821-40.326H265.555z M256.439,48.405l1.867-9.126h10.26l-1.864,9.126H256.439z"/>
	<path fill="#324D67" stroke="#324D67" stroke-width="2" stroke-miterlimit="10" d="M267.6,68.958
		c0.979-3.042,2.393-5.706,4.233-7.995c1.841-2.288,4.078-4.095,6.709-5.421s5.599-1.989,8.897-1.989
		c2.535,0,4.867,0.351,6.998,1.053c2.127,0.702,3.957,1.755,5.487,3.159c1.53,1.404,2.716,3.172,3.554,5.304
		c0.836,2.133,1.256,4.654,1.256,7.566c0,3.537-0.491,6.852-1.471,9.945c-0.981,3.094-2.404,5.785-4.271,8.072
		c-1.866,2.289-4.127,4.082-6.781,5.383c-2.654,1.299-5.682,1.949-9.078,1.949c-5.167,0-9.293-1.443-12.379-4.328
		c-3.085-2.887-4.628-7.215-4.628-12.987C266.128,75.236,266.618,72,267.6,68.958z M276.784,82.102
		c0.311,1.092,0.776,2.056,1.399,2.885c0.619,0.834,1.387,1.496,2.295,1.99c0.907,0.494,1.961,0.74,3.156,0.74
		c1.913,0,3.555-0.559,4.916-1.678c1.363-1.117,2.487-2.521,3.373-4.211c0.887-1.689,1.543-3.521,1.975-5.5
		c0.431-1.975,0.646-3.821,0.646-5.537c0-2.704-0.563-4.862-1.687-6.474c-1.125-1.611-3.051-2.418-5.776-2.418
		c-1.866,0-3.479,0.559-4.845,1.677c-1.363,1.119-2.478,2.509-3.336,4.173c-0.861,1.666-1.508,3.471-1.938,5.421
		c-0.431,1.949-0.646,3.783-0.646,5.499C276.316,79.865,276.473,81.009,276.784,82.102z"/>
	<path fill="#324D67" stroke="#324D67" stroke-width="2" stroke-miterlimit="10" d="M323.176,54.645l-1.148,5.616h0.146
		c3.302-4.472,7.63-6.708,12.988-6.708c7.224,0,10.836,3.615,10.836,10.842c0,0.417-0.048,0.95-0.146,1.599
		c-0.096,0.651-0.203,1.314-0.32,1.989c-0.12,0.676-0.24,1.314-0.359,1.912c-0.12,0.6-0.204,1.08-0.251,1.442l-4.593,23.634h-10.188
		l4.521-23.634c0.096-0.624,0.227-1.456,0.396-2.496c0.166-1.04,0.25-1.845,0.25-2.418c0-1.196-0.515-2.184-1.541-2.964
		c-1.031-0.78-2.143-1.17-3.338-1.17c-1.531,0-2.883,0.326-4.055,0.975c-1.173,0.651-2.178,1.496-3.014,2.535
		c-0.838,1.041-1.532,2.236-2.082,3.588c-0.551,1.354-0.969,2.73-1.256,4.135l-4.162,21.449H305.74l7.678-40.326H323.176z"/>
	<path fill="#324D67" d="M112.289,128.035c-0.378,0.785-0.863,1.429-1.456,1.933c-0.592,0.505-1.297,0.877-2.112,1.12
		c-0.816,0.242-1.773,0.363-2.872,0.363c-0.67,0-1.344-0.084-2.022-0.252c-0.678-0.168-1.288-0.438-1.829-0.812
		c-0.541-0.373-0.979-0.856-1.314-1.455s-0.502-1.336-0.502-2.213h3.632c-0.017,0.373,0.042,0.69,0.18,0.952
		c0.137,0.263,0.322,0.476,0.554,0.646c0.231,0.168,0.493,0.289,0.786,0.363c0.292,0.073,0.583,0.11,0.875,0.11
		c0.584,0,1.069-0.131,1.456-0.392c0.386-0.262,0.717-0.616,0.992-1.063c0.274-0.448,0.506-0.979,0.696-1.596
		c0.188-0.617,0.377-1.271,0.566-1.962l-0.051-0.055c-0.945,1.36-2.164,2.043-3.658,2.043c-0.79,0-1.503-0.141-2.138-0.42
		c-0.636-0.279-1.172-0.683-1.61-1.203c-0.438-0.522-0.777-1.146-1.018-1.862c-0.24-0.718-0.36-1.525-0.36-2.423
		c0-1.062,0.15-2.112,0.451-3.149c0.3-1.035,0.738-1.969,1.314-2.799c0.575-0.831,1.279-1.503,2.112-2.017
		c0.833-0.515,1.781-0.771,2.846-0.771c0.928,0,1.743,0.197,2.447,0.589s1.245,1.063,1.623,2.017h0.051l0.412-2.213h3.503
		l-2.653,13.721C112.967,126.318,112.667,127.252,112.289,128.035z M106.854,114.652c-0.463,0.354-0.85,0.797-1.159,1.33
		c-0.309,0.531-0.545,1.119-0.708,1.764c-0.163,0.645-0.245,1.256-0.245,1.834c0,0.43,0.047,0.836,0.142,1.218
		c0.094,0.384,0.245,0.724,0.451,1.022c0.206,0.298,0.463,0.531,0.772,0.699s0.678,0.252,1.108,0.252
		c0.652,0,1.224-0.172,1.713-0.52c0.49-0.346,0.893-0.784,1.211-1.314c0.317-0.531,0.558-1.125,0.721-1.777
		c0.163-0.654,0.245-1.289,0.245-1.904c0-0.914-0.215-1.666-0.644-2.254c-0.429-0.588-1.091-0.883-1.983-0.883
		C107.858,114.119,107.317,114.297,106.854,114.652z"/>
	<path fill="#324D67" d="M120.115,119.973c0,0.074,0,0.148,0,0.223v0.365c0,0.84,0.241,1.521,0.722,2.043
		c0.48,0.523,1.219,0.785,2.215,0.785c0.36,0,0.683-0.062,0.966-0.184c0.283-0.121,0.532-0.273,0.747-0.461
		c0.214-0.188,0.403-0.402,0.567-0.645c0.163-0.242,0.313-0.479,0.451-0.699h3.658c-0.292,0.818-0.635,1.539-1.03,2.154
		s-0.867,1.135-1.417,1.555c-0.55,0.42-1.189,0.73-1.919,0.938c-0.73,0.205-1.576,0.309-2.537,0.309
		c-0.894,0-1.705-0.131-2.435-0.393c-0.73-0.261-1.353-0.658-1.868-1.189c-0.515-0.53-0.915-1.188-1.198-1.975
		c-0.283-0.785-0.425-1.697-0.425-2.744c0-1.156,0.171-2.271,0.515-3.347c0.343-1.072,0.828-2.024,1.455-2.854
		s1.396-1.494,2.306-1.987c0.91-0.494,1.932-0.742,3.065-0.742c0.927,0,1.773,0.131,2.538,0.394
		c0.764,0.262,1.417,0.657,1.958,1.188c0.541,0.533,0.961,1.194,1.262,1.987c0.3,0.793,0.451,1.714,0.451,2.759
		c0,0.71-0.068,1.467-0.206,2.269h-9.814C120.124,119.812,120.115,119.896,120.115,119.973z M126.542,116.094
		c-0.06-0.363-0.176-0.695-0.348-0.994c-0.172-0.299-0.421-0.535-0.747-0.714c-0.326-0.177-0.756-0.267-1.288-0.267
		c-0.515,0-0.97,0.084-1.365,0.252s-0.739,0.393-1.03,0.672c-0.292,0.281-0.537,0.607-0.734,0.98
		c-0.197,0.373-0.365,0.766-0.502,1.176h6.105C126.633,116.826,126.603,116.457,126.542,116.094z"/>
	<path fill="#324D67" d="M137.117,111.516l-0.413,2.018h0.052c1.185-1.605,2.739-2.408,4.663-2.408c2.593,0,3.89,1.299,3.89,3.895
		c0,0.148-0.017,0.34-0.051,0.572c-0.035,0.233-0.073,0.473-0.116,0.715s-0.086,0.473-0.129,0.688s-0.073,0.387-0.09,0.518
		l-1.649,8.484h-3.658l1.623-8.484c0.034-0.225,0.081-0.521,0.142-0.896c0.06-0.373,0.09-0.662,0.09-0.867
		c0-0.431-0.185-0.785-0.554-1.063c-0.37-0.278-0.769-0.42-1.198-0.42c-0.55,0-1.035,0.116-1.456,0.351
		c-0.421,0.233-0.782,0.536-1.082,0.909c-0.3,0.373-0.55,0.804-0.747,1.287c-0.197,0.485-0.348,0.979-0.451,1.483l-1.494,7.701
		h-3.632l2.756-14.478h3.504V111.516z"/>
	<path fill="#324D67" d="M156.373,114.68c-0.404-0.373-1.018-0.561-1.842-0.561c-0.688,0-1.271,0.201-1.752,0.604
		c-0.481,0.4-0.867,0.909-1.159,1.525c-0.292,0.615-0.502,1.283-0.631,2.002c-0.129,0.719-0.193,1.386-0.193,2.002
		c0,0.43,0.042,0.836,0.129,1.218c0.085,0.384,0.232,0.714,0.438,0.994c0.206,0.28,0.467,0.504,0.786,0.672
		c0.317,0.169,0.708,0.253,1.172,0.253c0.412,0,0.777-0.074,1.095-0.225s0.601-0.346,0.85-0.588s0.455-0.527,0.618-0.854
		c0.163-0.326,0.296-0.668,0.399-1.022h3.658c-0.55,1.812-1.396,3.207-2.538,4.187c-1.142,0.98-2.589,1.471-4.34,1.471
		c-1.872,0-3.328-0.5-4.367-1.498c-1.039-0.998-1.558-2.562-1.558-4.688c0-1.231,0.167-2.396,0.502-3.485
		c0.335-1.092,0.825-2.054,1.468-2.885c0.644-0.831,1.43-1.482,2.357-1.96c0.927-0.477,1.992-0.715,3.194-0.715
		c0.807,0,1.572,0.104,2.293,0.31c0.721,0.205,1.353,0.522,1.893,0.951c0.541,0.432,0.97,0.989,1.288,1.682
		c0.318,0.689,0.485,1.513,0.502,2.464h-3.658C156.978,115.67,156.776,115.053,156.373,114.68z"/>
	<path fill="#324D67" d="M165.762,129.533c-0.327,0.402-0.687,0.715-1.082,0.938s-0.846,0.379-1.353,0.463
		c-0.507,0.084-1.104,0.125-1.79,0.125c-0.309,0-0.627-0.019-0.953-0.056s-0.652-0.065-0.979-0.084l0.618-3.305
		c0.241,0,0.485,0.028,0.734,0.084c0.249,0.057,0.493,0.084,0.734,0.084c0.429,0,0.773-0.069,1.031-0.209
		c0.257-0.142,0.467-0.31,0.631-0.505c0.163-0.196,0.3-0.405,0.412-0.631c0.112-0.225,0.228-0.42,0.348-0.588l-2.37-14.336h3.761
		l1.159,10.358h0.052l4.611-10.358h3.864l-8.475,16.491C166.406,128.623,166.088,129.132,165.762,129.533z"/>
	<path fill="#324D67" d="M181.52,116.654c0.353-1.094,0.857-2.049,1.521-2.871c0.66-0.82,1.463-1.471,2.408-1.945
		c0.942-0.477,2.009-0.715,3.192-0.715c0.91,0,1.748,0.127,2.511,0.379c0.767,0.252,1.424,0.63,1.973,1.134
		c0.55,0.505,0.977,1.14,1.273,1.903c0.303,0.766,0.451,1.672,0.451,2.717c0,1.27-0.176,2.459-0.526,3.57
		c-0.354,1.109-0.862,2.076-1.532,2.896s-1.48,1.467-2.436,1.934c-0.953,0.466-2.041,0.699-3.259,0.699
		c-1.854,0-3.336-0.52-4.443-1.556c-1.106-1.034-1.661-2.59-1.661-4.661C180.99,118.908,181.166,117.746,181.52,116.654z
		 M184.816,121.371c0.11,0.393,0.277,0.738,0.502,1.037c0.223,0.299,0.498,0.535,0.824,0.713c0.325,0.178,0.703,0.268,1.133,0.268
		c0.688,0,1.274-0.201,1.766-0.604c0.488-0.4,0.893-0.904,1.211-1.512c0.316-0.605,0.553-1.266,0.707-1.976
		c0.155-0.71,0.232-1.372,0.232-1.987c0-0.971-0.202-1.744-0.605-2.322c-0.402-0.579-1.095-0.869-2.074-0.869
		c-0.669,0-1.248,0.201-1.738,0.604c-0.488,0.4-0.889,0.9-1.196,1.497c-0.31,0.599-0.541,1.246-0.695,1.946
		c-0.155,0.699-0.231,1.357-0.231,1.975C184.648,120.568,184.704,120.979,184.816,121.371z"/>
	<path fill="#324D67" d="M196.575,114.176l0.515-2.66h2.189c0.172-0.934,0.361-1.75,0.565-2.449
		c0.206-0.699,0.489-1.293,0.853-1.777c0.359-0.482,0.836-0.85,1.43-1.094c0.592-0.24,1.369-0.361,2.33-0.361
		c0.396,0,0.795,0.02,1.197,0.057c0.404,0.037,0.804,0.094,1.199,0.168l-0.566,2.855c-0.189-0.02-0.387-0.037-0.594-0.059
		c-0.205-0.018-0.402-0.025-0.592-0.025c-0.465,0-0.816,0.062-1.059,0.182c-0.241,0.121-0.424,0.301-0.553,0.531
		c-0.131,0.232-0.229,0.516-0.299,0.841c-0.066,0.327-0.152,0.704-0.258,1.136h2.604l-0.516,2.658h-2.629l-2.293,11.816h-3.656
		l2.291-11.816L196.575,114.176L196.575,114.176z"/>
	<path fill="#324D67" d="M216.436,121.134c0.189,0.476,0.465,0.854,0.824,1.134c0.361,0.28,0.79,0.48,1.288,0.604
		s1.039,0.184,1.623,0.184c0.412,0,0.824-0.057,1.236-0.169c0.411-0.11,0.786-0.278,1.12-0.504c0.336-0.224,0.607-0.513,0.824-0.866
		c0.215-0.354,0.32-0.785,0.32-1.289c0-0.484-0.137-0.883-0.412-1.189c-0.273-0.309-0.631-0.574-1.066-0.797
		c-0.438-0.225-0.938-0.42-1.494-0.59c-0.559-0.168-1.121-0.344-1.688-0.531c-0.584-0.186-1.149-0.41-1.7-0.672
		c-0.55-0.262-1.043-0.598-1.479-1.008s-0.79-0.914-1.058-1.514c-0.267-0.598-0.397-1.324-0.397-2.184
		c0-1.121,0.215-2.072,0.646-2.856c0.429-0.782,0.985-1.423,1.674-1.918c0.688-0.493,1.465-0.856,2.332-1.093
		c0.867-0.23,1.746-0.352,2.641-0.352c0.943,0,1.833,0.117,2.666,0.352s1.562,0.611,2.189,1.135s1.123,1.189,1.494,2.002
		c0.368,0.812,0.553,1.799,0.553,2.954h-3.838c0.019-0.56-0.058-1.03-0.219-1.414c-0.164-0.382-0.396-0.694-0.695-0.938
		c-0.301-0.242-0.656-0.415-1.068-0.519s-0.852-0.154-1.312-0.154c-0.379,0-0.761,0.043-1.146,0.127
		c-0.387,0.084-0.733,0.224-1.043,0.421c-0.312,0.194-0.56,0.45-0.748,0.77s-0.283,0.709-0.283,1.177
		c0,0.485,0.168,0.893,0.503,1.219c0.336,0.326,0.737,0.599,1.211,0.812c0.473,0.216,0.957,0.384,1.455,0.504
		c0.497,0.122,0.901,0.222,1.211,0.296c0.723,0.203,1.383,0.441,1.983,0.713c0.601,0.271,1.119,0.621,1.56,1.051
		c0.438,0.43,0.775,0.951,1.018,1.566c0.24,0.615,0.359,1.372,0.359,2.27c0,1.195-0.228,2.213-0.683,3.053s-1.039,1.521-1.752,2.043
		c-0.713,0.523-1.517,0.9-2.408,1.135c-0.896,0.232-1.776,0.35-2.653,0.35c-2.574,0-4.494-0.566-5.758-1.706
		c-1.263-1.14-1.894-2.933-1.894-5.378h3.838C216.17,120.064,216.246,120.658,216.436,121.134z"/>
	<path fill="#324D67" d="M235.137,111.516l-2.832,14.479h-3.658l2.809-14.479H235.137z M231.865,109.275l0.67-3.275h3.684
		l-0.67,3.275H231.865z"/>
	<path fill="#324D67" d="M236.387,116.654c0.354-1.094,0.858-2.049,1.521-2.871c0.66-0.82,1.464-1.471,2.406-1.945
		c0.944-0.477,2.012-0.715,3.194-0.715c0.91,0,1.747,0.127,2.513,0.379c0.765,0.252,1.42,0.63,1.972,1.134
		c0.55,0.505,0.975,1.14,1.274,1.903c0.299,0.766,0.449,1.672,0.449,2.717c0,1.27-0.176,2.459-0.527,3.57
		c-0.353,1.109-0.861,2.076-1.531,2.896c-0.672,0.82-1.481,1.467-2.436,1.934c-0.953,0.466-2.039,0.699-3.26,0.699
		c-1.854,0-3.336-0.52-4.443-1.556c-1.105-1.034-1.66-2.59-1.66-4.661C235.857,118.908,236.034,117.746,236.387,116.654z
		 M239.684,121.371c0.111,0.393,0.279,0.738,0.502,1.037c0.226,0.299,0.498,0.535,0.824,0.713s0.704,0.268,1.135,0.268
		c0.688,0,1.274-0.201,1.766-0.604c0.488-0.4,0.893-0.904,1.211-1.512c0.316-0.605,0.554-1.266,0.708-1.976
		c0.153-0.71,0.231-1.372,0.231-1.987c0-0.971-0.203-1.744-0.604-2.322c-0.404-0.579-1.097-0.869-2.074-0.869
		c-0.67,0-1.249,0.201-1.737,0.604c-0.488,0.401-0.89,0.9-1.197,1.497c-0.311,0.599-0.541,1.246-0.695,1.946
		c-0.154,0.699-0.232,1.357-0.232,1.975C239.516,120.568,239.57,120.979,239.684,121.371z"/>
	<path fill="#324D67" d="M259.686,125.992l0.412-2.018h-0.051c-1.186,1.588-2.74,2.381-4.663,2.381c-2.593,0-3.89-1.287-3.89-3.863
		c0-0.15,0.013-0.342,0.039-0.574c0.025-0.232,0.06-0.473,0.103-0.715c0.044-0.242,0.087-0.471,0.13-0.686
		c0.043-0.217,0.08-0.389,0.115-0.52l1.648-8.482h3.658L255.564,120c-0.035,0.111-0.064,0.248-0.09,0.406
		c-0.026,0.158-0.054,0.32-0.078,0.488c-0.025,0.168-0.043,0.332-0.051,0.489c-0.011,0.159-0.016,0.284-0.016,0.38
		c0,0.43,0.186,0.782,0.555,1.062c0.369,0.277,0.77,0.42,1.197,0.42c0.55,0,1.034-0.117,1.456-0.352
		c0.42-0.232,0.78-0.537,1.081-0.91c0.301-0.371,0.55-0.803,0.747-1.287c0.196-0.484,0.348-0.979,0.45-1.483l1.494-7.698h3.657
		l-2.782,14.477H259.686z"/>
	<path fill="#324D67" d="M278.13,125.992h-3.864l-1.932-4.76l-3.555,4.76h-4.122l6.157-7.756l-3.017-6.721h3.916l1.47,4.172
		l3.015-4.172h4.096l-5.538,6.941L278.13,125.992z"/>
	<path fill="#324D67" d="M287.249,106l-3.916,19.992h-3.632l3.89-19.992H287.249z"/>
	<path fill="#324D67" d="M288.975,113.63c0.396-0.606,0.877-1.097,1.442-1.47c0.567-0.373,1.202-0.641,1.906-0.799
		s1.434-0.238,2.188-0.238c0.604,0,1.229,0.047,1.882,0.141c0.651,0.094,1.254,0.275,1.803,0.547
		c0.551,0.271,1.002,0.652,1.354,1.146c0.354,0.496,0.52,1.152,0.503,1.975c0,0.691-0.095,1.504-0.282,2.438l-1.187,5.822
		c-0.067,0.264-0.116,0.584-0.142,0.969c-0.026,0.383-0.039,0.713-0.039,0.992c0,0.242,0.043,0.521,0.129,0.842h-3.657v-1.43
		c-0.499,0.615-1.108,1.068-1.829,1.357c-0.723,0.289-1.469,0.434-2.241,0.434c-0.722,0-1.353-0.103-1.894-0.308
		c-0.541-0.206-0.991-0.479-1.354-0.825c-0.358-0.346-0.627-0.748-0.798-1.205c-0.172-0.457-0.258-0.938-0.258-1.439
		c0-1.4,0.439-2.521,1.326-3.36c0.885-0.841,2.134-1.36,3.748-1.567c0.857-0.111,1.604-0.195,2.24-0.252s1.162-0.145,1.584-0.267
		c0.42-0.122,0.733-0.298,0.939-0.53s0.311-0.584,0.311-1.052c0-0.374-0.076-0.673-0.231-0.896
		c-0.154-0.226-0.349-0.401-0.579-0.532c-0.23-0.13-0.48-0.22-0.747-0.267s-0.521-0.069-0.76-0.069
		c-0.653,0-1.236,0.174-1.752,0.519c-0.517,0.346-0.833,0.883-0.953,1.61h-3.427C288.322,114.998,288.579,114.236,288.975,113.63z
		 M294.436,119.594c-0.53,0.065-1.062,0.117-1.597,0.154c-0.344,0.037-0.679,0.098-1.005,0.182s-0.614,0.211-0.863,0.379
		c-0.248,0.168-0.449,0.396-0.604,0.688c-0.154,0.289-0.231,0.656-0.231,1.104c0,0.541,0.202,0.947,0.605,1.219
		c0.401,0.271,0.871,0.406,1.403,0.406c0.565,0,1.043-0.1,1.431-0.295c0.386-0.195,0.712-0.447,0.979-0.756
		c0.266-0.309,0.478-0.658,0.631-1.051c0.153-0.391,0.282-0.783,0.388-1.176l0.36-1.399
		C295.466,119.348,294.968,119.527,294.436,119.594z"/>
	<path fill="#324D67" d="M307.419,111.516l-0.412,2.018h0.052c1.187-1.605,2.738-2.408,4.662-2.408c2.594,0,3.891,1.299,3.891,3.895
		c0,0.148-0.019,0.34-0.053,0.572c-0.033,0.233-0.072,0.473-0.115,0.715s-0.086,0.473-0.129,0.688s-0.071,0.387-0.09,0.518
		l-1.647,8.484h-3.658l1.623-8.484c0.034-0.225,0.082-0.521,0.144-0.896c0.061-0.373,0.09-0.662,0.09-0.867
		c0-0.431-0.187-0.785-0.553-1.063c-0.371-0.278-0.771-0.42-1.199-0.42c-0.549,0-1.034,0.116-1.455,0.351
		c-0.422,0.233-0.781,0.536-1.082,0.909s-0.549,0.804-0.746,1.287c-0.198,0.485-0.348,0.979-0.451,1.483l-1.494,7.701h-3.632
		l2.756-14.478h3.502v-0.004H307.419z"/>
	<path fill="#324D67" d="M326.507,124.145c-0.412,0.783-0.975,1.35-1.688,1.693c-0.713,0.346-1.479,0.518-2.305,0.518
		c-1.615,0-2.863-0.508-3.748-1.523c-0.886-1.018-1.326-2.404-1.326-4.158c0-1.193,0.146-2.359,0.438-3.5
		c0.292-1.139,0.738-2.154,1.34-3.053c0.603-0.896,1.356-1.619,2.269-2.17c0.91-0.551,1.981-0.826,3.22-0.826
		c0.772,0,1.517,0.188,2.229,0.562c0.713,0.373,1.215,0.961,1.506,1.764h0.053l1.469-7.447h3.657l-3.89,19.992h-3.529l0.361-1.793
		L326.507,124.145z M323.3,114.707c-0.507,0.393-0.924,0.888-1.25,1.484c-0.325,0.598-0.565,1.25-0.721,1.961
		c-0.154,0.709-0.231,1.381-0.231,2.016c0,0.43,0.055,0.84,0.168,1.232c0.11,0.391,0.273,0.73,0.488,1.021s0.485,0.522,0.812,0.699
		c0.326,0.178,0.703,0.267,1.134,0.267c0.687,0,1.278-0.199,1.776-0.603c0.498-0.4,0.914-0.91,1.25-1.525
		c0.334-0.616,0.584-1.282,0.746-2.002c0.162-0.719,0.244-1.387,0.244-2.002c0-0.952-0.215-1.713-0.645-2.282
		c-0.432-0.567-1.092-0.854-1.983-0.854C324.402,114.119,323.807,114.316,323.3,114.707z"/>
	<path fill="#324D67" stroke="#324D67" stroke-width="0.6599" stroke-miterlimit="10" d="M102.345,99.83l-5.863,25.066h-5.301
		l3.245-9.561h-6.269l-7.62,9.561l-8.217,0.338L95.416,99.83H102.345z M94.756,113.688l2.31-9.236l0.66-1.979l-8.249,11.219h5.279
		V113.688z"/>
</g>
</svg>
